<svg width="35" height="35" viewBox="0 0 35 35" fill="none" xmlns="http://www.w3.org/2000/svg">
<path fill-rule="evenodd" clip-rule="evenodd" d="M35 17.5C35 27.165 27.165 35 17.5 35C7.83502 35 0 27.165 0 17.5C0 7.83502 7.83502 0 17.5 0C27.165 0 35 7.83502 35 17.5ZM18.2792 7.92908C18.8273 7.36371 19.6562 7.1726 20.3966 7.44092L21.4538 7.82407C22.8178 8.31838 23.2181 10.0549 22.2083 11.0965L16 17.5L22.2083 23.9034C23.2181 24.9451 22.8178 26.6816 21.4538 27.1759L20.3966 27.5591C19.6562 27.8274 18.8273 27.6363 18.2792 27.0709L10.3497 18.8922C9.59763 18.1164 9.59763 16.8836 10.3497 16.1078L18.2792 7.92908Z" fill="white"/>
</svg>
