<svg width="40" height="40" viewBox="0 0 40 40" fill="none" xmlns="http://www.w3.org/2000/svg">
<path d="M7.56548 33.9948H32.8132L30.0781 36.5735C29.6819 36.9499 29.4593 37.4605 29.4593 37.9928C29.4593 38.5252 29.6819 39.0357 30.0781 39.4121C30.4742 39.7885 31.0116 40 31.5719 40C32.1322 40 32.6695 39.7885 33.0657 39.4121L39.3776 33.4151C39.5748 33.2292 39.7314 33.0081 39.8382 32.7645C39.945 32.521 40 32.2597 40 31.9958C40 31.7319 39.945 31.4706 39.8382 31.227C39.7314 30.9834 39.5748 30.7623 39.3776 30.5765L33.0657 24.5794C32.8701 24.3921 32.6374 24.2434 32.381 24.1419C32.1246 24.0404 31.8496 23.9881 31.5719 23.9881C31.2941 23.9881 31.0191 24.0404 30.7627 24.1419C30.5064 24.2434 30.2737 24.3921 30.0781 24.5794C29.8809 24.7653 29.7243 24.9864 29.6175 25.23C29.5107 25.4736 29.4557 25.7348 29.4557 25.9987C29.4557 26.2626 29.5107 26.5239 29.6175 26.7675C29.7243 27.0111 29.8809 27.2322 30.0781 27.418L32.8132 29.9968H7.56548C7.13444 30.0047 6.70596 29.9319 6.30454 29.7825C5.90312 29.6331 5.53661 29.41 5.22595 29.126C4.91529 28.8419 4.66657 28.5026 4.49399 28.1272C4.32142 27.7518 4.22837 27.3478 4.22016 26.9383V22.0007C4.22016 21.4705 3.99849 20.9621 3.60392 20.5872C3.20934 20.2123 2.67419 20.0017 2.11618 20.0017C1.55817 20.0017 1.02301 20.2123 0.628441 20.5872C0.233868 20.9621 0.0121996 21.4705 0.0121996 22.0007V26.9383C0.0204537 27.8728 0.222376 28.7967 0.606438 29.6571C0.9905 30.5175 1.54918 31.2976 2.25057 31.9529C2.95197 32.6082 3.78234 33.1257 4.69428 33.4761C5.60621 33.8264 6.58185 34.0027 7.56548 33.9948ZM6.93429 15.424C7.33048 15.8004 7.86782 16.0119 8.42811 16.0119C8.98841 16.0119 9.52575 15.8004 9.92194 15.424C10.3181 15.0475 10.5407 14.537 10.5407 14.0047C10.5407 13.4723 10.3181 12.9618 9.92194 12.5854L7.18677 10.0066H32.4345C32.8656 9.9987 33.294 10.0715 33.6955 10.2209C34.0969 10.3703 34.4634 10.5934 34.774 10.8774C35.0847 11.1615 35.3334 11.5009 35.506 11.8762C35.6786 12.2516 35.7716 12.6556 35.7798 13.0651V18.0027C35.7798 18.5329 36.0015 19.0413 36.3961 19.4162C36.7907 19.7911 37.3258 20.0017 37.8838 20.0017C38.4418 20.0017 38.977 19.7911 39.3716 19.4162C39.7661 19.0413 39.9878 18.5329 39.9878 18.0027V13.0651C39.9795 12.1306 39.7776 11.2067 39.3936 10.3463C39.0095 9.48589 38.4508 8.70578 37.7494 8.05051C37.048 7.39525 36.2177 6.87767 35.3057 6.52732C34.3938 6.17697 33.4181 6.00072 32.4345 6.00863H7.18677L9.92194 3.4299C10.1191 3.24407 10.2757 3.02297 10.3825 2.77938C10.4893 2.53578 10.5443 2.2745 10.5443 2.0106C10.5443 1.74671 10.4893 1.48543 10.3825 1.24183C10.2757 0.998231 10.1191 0.777138 9.92194 0.591304C9.72635 0.40394 9.49365 0.255225 9.23726 0.153738C8.98087 0.0522506 8.70586 0 8.42811 0C8.15036 0 7.87536 0.0522506 7.61897 0.153738C7.36258 0.255225 7.12988 0.40394 6.93429 0.591304L0.622353 6.58834C0.425151 6.77417 0.268627 6.99527 0.161811 7.23886C0.0549943 7.48246 0 7.74374 0 8.00764C0 8.27153 0.0549943 8.53281 0.161811 8.77641C0.268627 9.02001 0.425151 9.2411 0.622353 9.42694L6.93429 15.424Z" fill="white"/>
</svg>
