<svg width="16" height="16" viewBox="0 0 16 16" fill="none" xmlns="http://www.w3.org/2000/svg">
<circle cx="8" cy="8" r="8" fill="#D9D9D9"/>
<path fill-rule="evenodd" clip-rule="evenodd" d="M4.19458 4.21131C4.31932 4.08698 4.48843 4.01714 4.66475 4.01714C4.84106 4.01714 5.01016 4.08698 5.13491 4.21131L7.9914 7.06167L10.8479 4.21131C10.9088 4.14607 10.9823 4.09376 11.0639 4.05747C11.1455 4.02119 11.2336 4.00168 11.3229 4.0001C11.4123 3.99853 11.501 4.01493 11.5838 4.04832C11.6667 4.08171 11.7419 4.13141 11.8051 4.19445C11.8683 4.2575 11.9181 4.3326 11.9515 4.41526C11.985 4.49793 12.0015 4.58647 11.9999 4.67561C11.9983 4.76476 11.9788 4.85267 11.9424 4.93411C11.906 5.01555 11.8536 5.08885 11.7882 5.14963L8.93174 7.99999L11.7882 10.8504C11.8536 10.9112 11.906 10.9845 11.9424 11.0659C11.9788 11.1474 11.9983 11.2353 11.9999 11.3244C12.0015 11.4135 11.985 11.5021 11.9515 11.5847C11.9181 11.6674 11.8683 11.7425 11.8051 11.8055C11.7419 11.8686 11.6667 11.9183 11.5838 11.9517C11.501 11.985 11.4123 12.0015 11.3229 11.9999C11.2336 11.9983 11.1455 11.9788 11.0639 11.9425C10.9823 11.9062 10.9088 11.8539 10.8479 11.7887L7.9914 8.93831L5.13491 11.7887C5.00878 11.906 4.84196 11.9698 4.6696 11.9668C4.49723 11.9637 4.33278 11.894 4.21087 11.7724C4.08898 11.6508 4.01915 11.4867 4.01611 11.3147C4.01307 11.1427 4.07705 10.9762 4.19458 10.8504L7.05107 7.99999L4.19458 5.14963C4.06998 5.02515 4 4.8564 4 4.68047C4 4.50453 4.06998 4.33579 4.19458 4.21131Z" fill="#151414"/>
</svg>
