<svg width="35" height="30" viewBox="0 0 35 30" fill="none" xmlns="http://www.w3.org/2000/svg">
<path opacity="0.9" d="M19.9917 0C11.7 0 5 6.71667 5 15H0L6.49167 21.4917L6.60833 21.7333L13.3333 15H8.33333C8.33333 8.55833 13.5583 3.33333 20 3.33333C26.4417 3.33333 31.6667 8.55833 31.6667 15C31.6667 21.4417 26.4417 26.6667 20 26.6667C16.775 26.6667 13.8667 25.35 11.7583 23.2417L9.4 25.6C12.1083 28.3167 15.85 30 19.9917 30C28.2833 30 35 23.2833 35 15C35 6.71667 28.2833 0 19.9917 0ZM18.3333 8.33333V16.6667L25.4667 20.9L26.6667 18.875L20.8333 15.4167V8.33333H18.3333Z" fill="white"/>
</svg>
