<svg width="47" height="40" viewBox="0 0 47 40" fill="none" xmlns="http://www.w3.org/2000/svg">
<path opacity="0.9" d="M26.6556 0C15.6 0 6.66667 8.95556 6.66667 20H0L8.65556 28.6556L8.81111 28.9778L17.7778 20H11.1111C11.1111 11.4111 18.0778 4.44444 26.6667 4.44444C35.2556 4.44444 42.2222 11.4111 42.2222 20C42.2222 28.5889 35.2556 35.5556 26.6667 35.5556C22.3667 35.5556 18.4889 33.8 15.6778 30.9889L12.5333 34.1333C16.1444 37.7556 21.1333 40 26.6556 40C37.7111 40 46.6667 31.0444 46.6667 20C46.6667 8.95556 37.7111 0 26.6556 0ZM24.4444 11.1111V22.2222L33.9556 27.8667L35.5556 25.1667L27.7778 20.5556V11.1111H24.4444Z" fill="white"/>
</svg>
