<svg width="35" height="35" viewBox="0 0 35 35" fill="none" xmlns="http://www.w3.org/2000/svg">
<path fill-rule="evenodd" clip-rule="evenodd" d="M17.89 3.69674C17.7793 3.61261 17.6417 3.56679 17.5 3.56679C17.3583 3.56679 17.2207 3.61261 17.11 3.69674L3.985 13.6833C3.91148 13.7392 3.85215 13.8101 3.81145 13.8908C3.77078 13.9715 3.74975 14.0599 3.75 14.1494V30.8389C3.75 31.167 4.03 31.4334 4.375 31.4334H11.25V18.9501C11.25 18.4771 11.4475 18.0235 11.7992 17.6891C12.1508 17.3546 12.6277 17.1668 13.125 17.1668H21.875C22.3723 17.1668 22.8493 17.3546 23.2008 17.6891C23.5525 18.0235 23.75 18.4771 23.75 18.9501V31.4334H30.625C30.7907 31.4334 30.9497 31.3708 31.067 31.2593C31.1842 31.1478 31.25 30.9966 31.25 30.8389V14.147C31.2498 14.0579 31.2287 13.97 31.188 13.8897C31.1472 13.8095 31.0883 13.7389 31.015 13.6833L17.89 3.69674ZM14.765 0.912362C15.5409 0.321773 16.505 0 17.4987 0C18.4925 0 19.4567 0.321773 20.2325 0.912362L33.3575 10.899C34.395 11.6884 35 12.8844 35 14.1494V30.8389C35 31.9424 34.539 33.0008 33.7185 33.7812C32.898 34.5615 31.7853 35 30.625 35H21.875C21.3777 35 20.9008 34.8122 20.5492 34.4776C20.1976 34.1433 20 33.6896 20 33.2167V20.7334H15V33.2167C15 33.6896 14.8025 34.1433 14.4508 34.4776C14.0992 34.8122 13.6223 35 13.125 35H4.375C3.21467 35 2.10188 34.5615 1.2814 33.7812C0.460925 33.0008 0 31.9424 0 30.8389V14.147C0 12.8844 0.605 11.6884 1.6425 10.899L14.7675 0.912362H14.765Z" fill="white"/>
</svg>
